<svg viewBox="0 0 1033 400" xmlns="http://www.w3.org/2000/svg"><g><g><g><g><g><line x1="41.171875" y1="377" x2="36.171875" y2="377" style="visibility: inherit;" fill="rgb(0, 0, 0)" stroke="rgb(204, 204, 204)" stroke-width="1px"></line><line x1="41.171875" y1="345.5833333333333" x2="36.171875" y2="345.5833333333333" style="visibility: inherit;" fill="rgb(0, 0, 0)" stroke="rgb(204, 204, 204)" stroke-width="1px"></line><line x1="41.171875" y1="314.1666666666667" x2="36.171875" y2="314.1666666666667" style="visibility: inherit;" fill="rgb(0, 0, 0)" stroke="rgb(204, 204, 204)" stroke-width="1px"></line><line x1="41.171875" y1="282.75" x2="36.171875" y2="282.75" style="visibility: inherit;" fill="rgb(0, 0, 0)" stroke="rgb(204, 204, 204)" stroke-width="1px"></line><line x1="41.171875" y1="251.33333333333337" x2="36.171875" y2="251.33333333333337" style="visibility: inherit;" fill="rgb(0, 0, 0)" stroke="rgb(204, 204, 204)" stroke-width="1px"></line><line x1="41.171875" y1="219.91666666666663" x2="36.171875" y2="219.91666666666663" style="visibility: inherit;" fill="rgb(0, 0, 0)" stroke="rgb(204, 204, 204)" stroke-width="1px"></line><line x1="41.171875" y1="188.5" x2="36.171875" y2="188.5" style="visibility: inherit;" fill="rgb(0, 0, 0)" stroke="rgb(204, 204, 204)" stroke-width="1px"></line><line x1="41.171875" y1="157.08333333333331" x2="36.171875" y2="157.08333333333331" style="visibility: inherit;" fill="rgb(0, 0, 0)" stroke="rgb(204, 204, 204)" stroke-width="1px"></line><line x1="41.171875" y1="125.66666666666669" x2="36.171875" y2="125.66666666666669" style="visibility: inherit;" fill="rgb(0, 0, 0)" stroke="rgb(204, 204, 204)" stroke-width="1px"></line><line x1="41.171875" y1="94.25" x2="36.171875" y2="94.25" style="visibility: inherit;" fill="rgb(0, 0, 0)" stroke="rgb(204, 204, 204)" stroke-width="1px"></line><line x1="41.171875" y1="62.83333333333332" x2="36.171875" y2="62.83333333333332" style="visibility: inherit;" fill="rgb(0, 0, 0)" stroke="rgb(204, 204, 204)" stroke-width="1px"></line><line x1="41.171875" y1="31.416666666666682" x2="36.171875" y2="31.416666666666682" style="visibility: inherit;" fill="rgb(0, 0, 0)" stroke="rgb(204, 204, 204)" stroke-width="1px"></line><line x1="41.171875" y1="0" x2="36.171875" y2="0" style="visibility: inherit;" fill="rgb(0, 0, 0)" stroke="rgb(204, 204, 204)" stroke-width="1px"></line></g><g transform="translate(31.171875, 0)"><text x="0" y="377" dx="0em" dy="0.3em" style="text-anchor: end; visibility: hidden; font-family: Roboto, sans-serif; font-size: 12px; font-weight: 200;" fill="rgb(255, 255, 255)" stroke="none" stroke-width="1px">-40</text><text x="0" y="345.5833333333333" dx="0em" dy="0.3em" style="text-anchor: end; visibility: inherit; font-family: Roboto, sans-serif; font-size: 12px; font-weight: 200;" fill="rgb(255, 255, 255)" stroke="none" stroke-width="1px">-20</text><text x="0" y="314.1666666666667" dx="0em" dy="0.3em" style="text-anchor: end; visibility: inherit; font-family: Roboto, sans-serif; font-size: 12px; font-weight: 200;" fill="rgb(255, 255, 255)" stroke="none" stroke-width="1px">0</text><text x="0" y="282.75" dx="0em" dy="0.3em" style="text-anchor: end; visibility: inherit; font-family: Roboto, sans-serif; font-size: 12px; font-weight: 200;" fill="rgb(255, 255, 255)" stroke="none" stroke-width="1px">20</text><text x="0" y="251.33333333333337" dx="0em" dy="0.3em" style="text-anchor: end; visibility: inherit; font-family: Roboto, sans-serif; font-size: 12px; font-weight: 200;" fill="rgb(255, 255, 255)" stroke="none" stroke-width="1px">40</text><text x="0" y="219.91666666666663" dx="0em" dy="0.3em" style="text-anchor: end; visibility: inherit; font-family: Roboto, sans-serif; font-size: 12px; font-weight: 200;" fill="rgb(255, 255, 255)" stroke="none" stroke-width="1px">60</text><text x="0" y="188.5" dx="0em" dy="0.3em" style="text-anchor: end; visibility: inherit; font-family: Roboto, sans-serif; font-size: 12px; font-weight: 200;" fill="rgb(255, 255, 255)" stroke="none" stroke-width="1px">80</text><text x="0" y="157.08333333333331" dx="0em" dy="0.3em" style="text-anchor: end; visibility: inherit; font-family: Roboto, sans-serif; font-size: 12px; font-weight: 200;" fill="rgb(255, 255, 255)" stroke="none" stroke-width="1px">100</text><text x="0" y="125.66666666666669" dx="0em" dy="0.3em" style="text-anchor: end; visibility: inherit; font-family: Roboto, sans-serif; font-size: 12px; font-weight: 200;" fill="rgb(255, 255, 255)" stroke="none" stroke-width="1px">120</text><text x="0" y="94.25" dx="0em" dy="0.3em" style="text-anchor: end; visibility: inherit; font-family: Roboto, sans-serif; font-size: 12px; font-weight: 200;" fill="rgb(255, 255, 255)" stroke="none" stroke-width="1px">140</text><text x="0" y="62.83333333333332" dx="0em" dy="0.3em" style="text-anchor: end; visibility: inherit; font-family: Roboto, sans-serif; font-size: 12px; font-weight: 200;" fill="rgb(255, 255, 255)" stroke="none" stroke-width="1px">160</text><text x="0" y="31.416666666666682" dx="0em" dy="0.3em" style="text-anchor: end; visibility: inherit; font-family: Roboto, sans-serif; font-size: 12px; font-weight: 200;" fill="rgb(255, 255, 255)" stroke="none" stroke-width="1px">180</text><text x="0" y="0" dx="0em" dy="0.3em" style="text-anchor: end; visibility: hidden; font-family: Roboto, sans-serif; font-size: 12px; font-weight: 200;" fill="rgb(255, 255, 255)" stroke="none" stroke-width="1px">200</text></g><line x1="41.171875" y1="0" x2="41.171875" y2="377" fill="rgb(0, 0, 0)" stroke="rgb(204, 204, 204)" stroke-width="1px"></line></g></g><g transform="translate(41, 0)" clip-path="url(#clip_0)"><clipPath id="clip_0"><rect width="991" height="377"></rect></clipPath><g><g><g><line x1="0" y1="0" x2="0" y2="377" fill="rgb(0, 0, 0)" stroke="rgb(189, 189, 189)" stroke-width="1px" opacity="0.25"></line><line x1="110.203125" y1="0" x2="110.203125" y2="377" fill="rgb(0, 0, 0)" stroke="rgb(189, 189, 189)" stroke-width="1px" opacity="0.25"></line><line x1="220.40625" y1="0" x2="220.40625" y2="377" fill="rgb(0, 0, 0)" stroke="rgb(189, 189, 189)" stroke-width="1px" opacity="0.25"></line><line x1="330.609375" y1="0" x2="330.609375" y2="377" fill="rgb(0, 0, 0)" stroke="rgb(189, 189, 189)" stroke-width="1px" opacity="0.25"></line><line x1="440.8125" y1="0" x2="440.8125" y2="377" fill="rgb(0, 0, 0)" stroke="rgb(189, 189, 189)" stroke-width="1px" opacity="0.25"></line><line x1="551.015625" y1="0" x2="551.015625" y2="377" fill="rgb(0, 0, 0)" stroke="rgb(189, 189, 189)" stroke-width="1px" opacity="0.25"></line><line x1="661.21875" y1="0" x2="661.21875" y2="377" fill="rgb(0, 0, 0)" stroke="rgb(189, 189, 189)" stroke-width="1px" opacity="0.25"></line><line x1="771.421875" y1="0" x2="771.421875" y2="377" fill="rgb(0, 0, 0)" stroke="rgb(189, 189, 189)" stroke-width="1px" opacity="0.25"></line><line x1="881.625" y1="0" x2="881.625" y2="377" fill="rgb(0, 0, 0)" stroke="rgb(189, 189, 189)" stroke-width="1px" opacity="0.25"></line><line x1="991.828125" y1="0" x2="991.828125" y2="377" fill="rgb(0, 0, 0)" stroke="rgb(189, 189, 189)" stroke-width="1px" opacity="0.25"></line></g><g><line x1="0" y1="377" x2="991.828125" y2="377" fill="rgb(0, 0, 0)" stroke="rgb(189, 189, 189)" stroke-width="1px" opacity="0.25"></line><line x1="0" y1="345.5833333333333" x2="991.828125" y2="345.5833333333333" fill="rgb(0, 0, 0)" stroke="rgb(189, 189, 189)" stroke-width="1px" opacity="0.25"></line><line x1="0" y1="314.1666666666667" x2="991.828125" y2="314.1666666666667" fill="rgb(0, 0, 0)" stroke="rgb(189, 189, 189)" stroke-width="1px" opacity="0.25"></line><line x1="0" y1="282.75" x2="991.828125" y2="282.75" fill="rgb(0, 0, 0)" stroke="rgb(189, 189, 189)" stroke-width="1px" opacity="0.25"></line><line x1="0" y1="251.33333333333337" x2="991.828125" y2="251.33333333333337" fill="rgb(0, 0, 0)" stroke="rgb(189, 189, 189)" stroke-width="1px" opacity="0.25"></line><line x1="0" y1="219.91666666666663" x2="991.828125" y2="219.91666666666663" fill="rgb(0, 0, 0)" stroke="rgb(189, 189, 189)" stroke-width="1px" opacity="0.25"></line><line x1="0" y1="188.5" x2="991.828125" y2="188.5" fill="rgb(0, 0, 0)" stroke="rgb(189, 189, 189)" stroke-width="1px" opacity="0.25"></line><line x1="0" y1="157.08333333333331" x2="991.828125" y2="157.08333333333331" fill="rgb(0, 0, 0)" stroke="rgb(189, 189, 189)" stroke-width="1px" opacity="0.25"></line><line x1="0" y1="125.66666666666669" x2="991.828125" y2="125.66666666666669" fill="rgb(0, 0, 0)" stroke="rgb(189, 189, 189)" stroke-width="1px" opacity="0.25"></line><line x1="0" y1="94.25" x2="991.828125" y2="94.25" fill="rgb(0, 0, 0)" stroke="rgb(189, 189, 189)" stroke-width="1px" opacity="0.25"></line><line x1="0" y1="62.83333333333332" x2="991.828125" y2="62.83333333333332" fill="rgb(0, 0, 0)" stroke="rgb(189, 189, 189)" stroke-width="1px" opacity="0.25"></line><line x1="0" y1="31.416666666666682" x2="991.828125" y2="31.416666666666682" fill="rgb(0, 0, 0)" stroke="rgb(189, 189, 189)" stroke-width="1px" opacity="0.25"></line><line x1="0" y1="0" x2="991.828125" y2="0" fill="rgb(0, 0, 0)" stroke="rgb(189, 189, 189)" stroke-width="1px" opacity="0.25"></line></g></g></g><g><g><line x1="0" y1="314.1666666666667" x2="991.828125" y2="314.1666666666667" fill="rgb(0, 0, 0)" stroke="rgb(153, 153, 153)" stroke-width="1.5px"></line></g></g><g><g><line x1="110.203125" y1="0" x2="110.203125" y2="377" fill="rgb(0, 0, 0)" stroke="rgb(153, 153, 153)" stroke-width="1.5px"></line></g></g><g><g><g><g><g><path stroke="rgb(255, 112, 67)" stroke-width="2px" d="M112.40718749999999,345.78731264273324L114.61125,342.59123071361984L116.81531249999999,353.49068741398287L119.019375,364.0370506869107L121.2234375,364.9560726049587L123.4275,363.63764070173477L125.63156250000002,357.9642572316481L127.835625,354.52888549894215L130.0396875,351.48368551086986L132.24375,348.45615940001153L134.44781250000003,345.036129535769L136.651875,343.0856141926506L138.8559375,342.0953893264353L141.06,341.2608214469921L143.2640625,340.37676676317653L145.46812500000001,338.89601664960486L147.67218749999998,336.6253540918244L149.87625,334.6205390135013L152.0803125,332.62392424780796L154.284375,330.07003830619135L156.48843749999997,326.918631256229L158.6925,322.9422542158464L160.8965625,319.28552976525026L163.100625,315.36829690137944L165.3046875,311.39936033188116L167.50875,307.4272370884155L169.71281249999998,303.57471958094266L171.916875,299.20943295134407L174.1209375,294.9521000406501L176.32500000000002,290.5978693334551L178.52906249999998,286.2996258554174L180.733125,282.2846714227725L182.9371875,278.3032922391956L185.14125,274.3496473847437L187.3453125,270.49646786585447L189.549375,266.74808759213283L191.7534375,263.0852470326351L193.9575,259.522348820318L196.1615625,256.1722089364441L198.36562500000002,252.66581658138222L200.5696875,249.01800407704093L202.77375,245.3281816922647L204.9778125,241.5374513284146L207.18187500000002,237.82840804941813L209.3859375,234.31648346214592L211.59,230.99985155806297L213.7940625,227.82762238470323L215.998125,224.79154012426443L218.2021875,221.9158758076633L220.40625,219.04177636113184L222.6103125,216.24733292251668L224.81437499999998,213.60499682873555L227.0184375,210.97239991035636L229.2225,208.46198504445707L231.42656250000002,206.04815699806954L233.63062499999998,203.70906737245286L235.8346875,201.50329175649057L238.03875,199.33211930568797L240.2428125,197.1918534858419L242.446875,195.06622102421667L244.6509375,193.0682049029783L246.855,191.13880392101493L249.0590625,189.29695552909217L251.26312500000003,187.47497397018066L253.4671875,185.74484169089015L255.67125,184.01476277907602L257.8753125,182.3219886298823L260.079375,180.69414232648825L262.2834375,179.08685031128098L264.4875,177.52694932402673L266.69156250000003,176.04396381936044L268.89562500000005,174.62270199632488L271.09968749999996,173.17169901148003L273.30375,171.76074938913112L275.5078125,170.40160435725716L277.711875,169.11797459177615L279.9159375,167.83635273753907L282.12,166.54661675732967L284.3240625,165.32281474313316L286.528125,164.14721435423928L288.7321875,162.99215097963847L290.93625000000003,161.85429600815453L293.1403125,160.75021264914267L295.34437499999996,159.66154455328504L297.5484375,158.58951297186425L299.7525,157.5422870741856L301.9565625,156.54809530428585L304.160625,155.5574766351351L306.3646875,154.56605700552342L308.56875,153.55835264061352L310.77281250000004,152.59378279141842L312.97687499999995,151.64576635464138L315.18093749999997,150.72393472306348L317.385,149.8324794596146L319.5890625,148.96342541685507L321.793125,148.1241470242241L323.9971875,147.30240264109912L326.20125,146.45524665834648L328.40531250000004,145.62282775997113L330.609375,144.82500696708743L332.8134375,143.98863779049034L335.0175,143.13988462499518L337.2215625,142.22887571641363L339.42562499999997,141.30973703534727L341.6296875,140.38836121227328L343.83375,139.4557397326586L346.03781250000003,138.52186027273862L348.241875,137.56543145913045L350.4459375,136.61734171188726L352.65000000000003,135.68089407492317L354.8540625,134.77101771007406L357.05812499999996,133.780804571125L359.2621875,132.77940178624738L361.46625,131.76725558438972L363.67031249999997,130.74941486090438L365.874375,129.7407281582484L368.0784375,128.75227294014005L370.2825,127.74661036474146L372.4865625,126.74459709020068L374.690625,125.77615733481638L376.89468750000003,124.84332048312179L379.09875,123.96413745847335L381.30281249999996,123.09235793720133L383.506875,122.25329559591118L385.7109375,121.4051315664938L387.915,120.56780428308541L390.1190625,119.75558148926591L392.323125,118.99614432765351L394.5271875,118.27691664876954L396.73125000000005,117.59444262451963L398.9353125,116.92075265142182L401.139375,116.2436677159298L403.3434375,115.60221775144132L405.5475,114.95887250902182L407.7515625,114.34820862436605L409.955625,113.74813428939628L412.1596875,113.15727182742687L414.36375000000004,112.57305534729713L416.5678125,111.99028465296054L418.771875,111.46941443510705L420.9759375,110.96627608133937L423.18,110.50977320579493L425.38406249999997,110.09662571340554L427.588125,109.71236521306025L429.7921875,109.32631806098208L431.99625,108.93331209612813L434.2003125,108.5392652222958L436.404375,108.14230151527929L438.60843750000004,107.74208027190456L440.8125,107.37200013729661L443.01656249999996,107.00311902748874L445.220625,106.60819950933858L447.4246875,106.22277939447373L449.62874999999997,105.8224094996827L451.8328125,105.43583858176737L454.036875,105.05939600452525L456.24093750000003,104.6627576550996L458.445,104.25443254198437L460.6490625,103.84164340350608L462.85312500000003,103.44859290502026L465.0571875,103.04201724339039L467.26124999999996,102.63773639396263L469.4653125,102.2335616097846L471.669375,101.83183577311465L473.8734375,101.42574650972479L476.0775,101.03215916014886L478.2815625,100.64597908036026L480.485625,100.25844129390508L482.68968750000005,99.86610778670553L484.89375,99.45320450901231L487.0978125,99.03783540144715L489.301875,98.62169333666955L491.5059375,98.2349704664837L493.71,97.86690604107388L495.9140625,97.51198907514275L498.118125,97.14014837956516L500.32218750000004,96.80266992825523L502.52625000000006,96.4795060653707L504.73031249999997,96.1386796456591L506.934375,95.79298472138454L509.13843749999995,95.46846484668602L511.3425,95.1336408469753L513.5465625,94.7994735035826L515.750625,94.4730118373125L517.9546875,94.14643686073894L520.15875,93.81480316643072L522.3628124999999,93.47640855598108L524.566875,93.16407559827789L526.7709375,92.85329786405325L528.975,92.56283414172728L531.1790625,92.26221388791703L533.3831250000001,91.96987171446452L535.5871875,91.6840387583885L537.7912500000001,91.38254449528348L539.9953125,91.08872657510949L542.1993749999999,90.78030390623134L544.4034375,90.46158000642238L546.6075,90.16531498013774L548.8115625,89.87222251902048L551.015625,89.56729014287852L553.2196875000001,89.26931963517221L555.42375,88.9791690987096L557.6278125,88.73318594050461L559.831875,88.49179595113443L562.0359374999999,88.25863701591295L564.24,88.05894835820723L566.4440625,87.86397363166243L568.648125,87.68703079461483L570.8521875,87.51591926019101L573.05625,87.34908161416683L575.2603124999999,87.17362660779959L577.464375,87.02851044657793L579.6684375,86.88271360893773L581.8725000000001,86.72758288692313L584.0765625,86.57779158808799L586.280625,86.428935881102L588.4846875000001,86.2881122444913L590.6887499999999,86.16213279577632L592.8928125,86.04336999855896L595.096875,85.91694172654239L597.3009375,85.7808493622161L599.505,85.64434667456935L601.7090625000001,85.48796138044482L603.913125,85.31275816131944L606.1171875,85.14927377394916L608.32125,84.99206120936171L610.5253124999999,84.82767275144582L612.729375,84.65609667976395L614.9334375,84.48329986682037L617.1375,84.32017088959266L619.3415625,84.17433538247789L621.5456250000001,84.03952180733482L623.7496875,83.91055803620625L625.9537499999999,83.80665340923615L628.1578125,83.6947664063037L630.3618749999999,83.58018198764721L632.5659375,83.46718893568304L634.77,83.37315426418738L636.9740625000001,83.27858652782126L639.178125,83.16737559767768L641.3821875,83.05370930521916L643.58625,82.94020846949465L645.7903125,82.8207126382979L647.994375,82.69358240325985L650.1984375,82.56082474050893L652.4025,82.41897835206402L654.6065625,82.28236085494247L656.8106250000001,82.15323375550625L659.0146874999999,82.02471651131063L661.21875,81.90764134195804L663.4228125,81.79265540699235L665.626875,81.70430767595236L667.8309375,81.63309025262782L670.035,81.58866764873247L672.2390625,81.54372355748765L674.443125,81.507911582174L676.6471875,81.48564098435193L678.8512499999999,81.48666502891255L681.0553125,81.50647491278363L683.259375,81.5193349162549L685.4634375,81.5298043598807L687.6675,81.5474697934038L689.8715625,81.55870440378368L692.0756250000001,81.5782326816564L694.2796874999999,81.5983704012092L696.48375,81.62465728391159L698.6878125,81.64690806388687L700.891875,81.66051207401284L703.0959375,81.67313677767851L705.3000000000001,81.69169672513675L707.5040625,81.69978760442326L709.708125,81.69173907817674L711.9121875,81.68661740055565L714.1162499999999,81.67195201687595L716.3203125,81.64772642546279L718.524375,81.63065326887416L720.7284375,81.60747342249333L722.9325,81.59390513700738L725.1365625000001,81.5784250341209L727.3406249999999,81.57097233963981L729.5446875,81.54130672806754L731.74875,81.51614860283964L733.9528124999999,81.49239012392479L736.156875,81.44832555372109L738.3609375,81.3967230496322L740.565,81.34830787384921L742.7690625,81.29843784125106L744.973125,81.2446907663851L747.1771875,81.20243986677005L749.38125,81.16163416473213L751.5853125,81.11394293661041L753.7893750000001,81.06566538204649L755.9934375,81.0149501532919L758.1975,80.98080630094577L760.4015625000001,80.93718497346231L762.6056249999999,80.89859666313454L764.8096875,80.86781288499856L767.01375,80.83925192256994L769.2178125,80.81434909482233L771.421875,80.78950037158042L773.6259375000001,80.77930095805996L775.83,80.75890416122466L778.0340625,80.72591476657699L780.238125,80.6848062692468L782.4421874999999,80.6407627089793L784.64625,80.58521032527106L786.8503125,80.533961387481L789.054375,80.46999917503035L791.2584375,80.40288634751056L793.4625000000001,80.3364137043586L795.6665624999999,80.258083576408L797.870625,80.16838212412469L800.0746875,80.07457984615249L802.27875,79.98062035928761L804.4828125,79.88602116229069L806.686875,79.80289576784836L808.8909375000001,79.71711476451394L811.095,79.61714319550312L813.2990625,79.50547759492073L815.503125,79.39699785211582L817.7071875,79.28930540958441L819.91125,79.17461453670306L822.1153125,79.06102324182933L824.319375,78.9572859975632L826.5234375,78.84529837623985L828.7275000000001,78.7364137037145L830.9315624999999,78.62661524126104L833.135625,78.52521451630693L835.3396875,78.4101764479364L837.54375,78.28030202416286L839.7478125,78.14249723030761L841.951875,77.99368012528221L844.1559375,77.82272109434497L846.36,77.63934705338315L848.5640625,77.45102224367744L850.7681249999999,77.24997244005007L852.9721875,77.05322466573139L855.17625,76.83377353729745L857.3803125000001,76.61791321940873L859.584375,76.39931554477647L861.7884375000001,76.19034820460772L863.9925,75.97840798189829L866.1965624999999,75.76726024739902L868.400625,75.55691954908683L870.6046875,75.35776897269308L872.80875,75.17282745919535L875.0128125,74.99281200790209L877.2168750000001,74.80764190920097L879.4209375,74.62160450340662L881.625,74.42938064950037L883.8290625,74.24533560146322L886.0331249999999,74.04725467832239L888.2371875,73.8390387516909L890.44125,73.62603303010934L892.6453125,73.41283263606222L894.849375,73.19194825764518L897.0534375000001,72.95919250467732L899.2574999999999,72.73122349490838L901.4615625,72.50659454029652L903.665625,72.2865548855935L905.8696874999999,72.07651446548866L908.07375,71.86480659429333L910.2778125,71.6651607133826L912.4818750000001,71.45393102349799L914.6859375,71.23737839417493L916.89,71.02496446328308L919.0940625,70.8158759541098L921.298125,70.62874558104714L923.5021875,70.44483866897484L925.7062500000001,70.26890396907095L927.9103125,70.08461541236564L930.114375,69.9141458312168L932.3184375,69.73304452041081L934.5224999999999,69.54584559994825L936.7265625,69.35786795068773L938.930625,69.15806886219706L941.1346875,68.94823128367749L943.33875,68.72999000860898L945.5428125000001,68.51085851517648L947.746875,68.27550532266656L949.9509374999999,68.04817453773877L952.155,67.81815822664669L954.3590624999999,67.58940058749805L956.563125,67.36881127190199L958.7671875,67.140999802379L960.97125,66.92210362845297L963.1753125,66.68323304429104L965.3793750000001,66.42729893280811L967.5834375,66.1691403249296L969.7875,65.91420762845682" style="fill: none;" fill="none"></path></g></g></g></g><g opacity="0.2"><g><g><g><path stroke="rgb(255, 112, 67)" stroke-width="2px" d="M112.40718749999999,345.78731264273324L114.61125,339.39834486643474L116.81531249999999,375.25691334406537L119.019375,395.61290450096135L121.2234375,368.6229792435964L123.4275,357.0652313152949L125.63156250000002,324.0428990940253L127.835625,330.5772816379865L130.0396875,327.2314573923747L132.24375,321.34430040915805L134.44781250000003,311.02336935798326L136.651875,321.7582512815793L138.8559375,330.28964597384135L141.06,330.4870817422867L143.2640625,328.0924258907636L145.46812500000001,316.86162842810154L147.67218749999998,300.60202461481094L149.87625,300.84378957748413L152.0803125,297.0243525862694L154.284375,282.0285446484884L156.48843749999997,264.5481131633123L158.6925,240.3507848262787L160.8965625,239.75629933675134L163.100625,226.34521028200788L165.3046875,217.32648507754004L167.50875,209.40482765833536L169.71281249999998,204.75029671986897L171.916875,182.98256057103475L174.1209375,177.45980002085366L176.32500000000002,166.20170971552528L178.52906249999998,159.33181864420573L180.733125,159.79273080825806L182.9371875,152.97976614634194L185.14125,146.07388559977215L187.3453125,141.75598748524982L189.549375,137.88971354166665L191.7534375,133.63421875635782L193.9575,130.17003701527915L196.1615625,131.3190037091573L198.36562500000002,118.6171757698059L200.5696875,106.05819117228191L202.77375,97.18045171101886L204.9778125,85.70348834991455L207.18187500000002,81.7996789296468L209.3859375,83.21929175059L211.59,85.13432013193767L213.7940625,85.28338343302408L215.998125,85.46844819386803L218.2021875,87.21339244842528L220.40625,81.67599881490071L222.6103125,80.03057390848795L224.81437499999998,82.29190661112466L227.0184375,77.64417088826497L229.2225,78.94091854095461L231.42656250000002,79.22346528371173L233.63062499999998,78.59734668731687L235.8346875,81.43659629821775L238.03875,79.09815527598062L240.2428125,76.64981632232667L242.446875,73.34456113179527L244.6509375,76.77272942860924L246.855,77.02193527221681L249.0590625,78.62742780049643L251.26312500000003,76.28848342895509L253.4671875,78.54063599904379L255.67125,75.19271596272785L257.8753125,74.26180737813314L260.079375,75.25640163421633L262.2834375,73.47885951995852L264.4875,73.57696469624835L266.69156250000003,75.83685925801598L268.89562500000005,77.26253623962401L271.09968749999996,72.42403113047283L273.30375,72.48253949483234L275.5078125,73.5063519795736L277.711875,76.41547126770018L279.9159375,74.09107608795165L282.12,71.01371828715008L284.3240625,73.54182612101238L286.528125,74.89492492675782L288.7321875,74.23282883961997L290.93625000000003,73.3680507659912L293.1403125,73.87312583923341L295.34437499999996,72.99552434285482L297.5484375,72.26226425170898L299.7525,72.2507111867269L301.9565625,74.66367187499998L304.160625,73.05930589040122L306.3646875,71.09331938425697L308.56875,67.79266624450685L310.77281250000004,69.61776288350421L312.97687499999995,69.22821846008299L315.18093749999997,69.74204222361249L317.385,70.70686696370444L319.5890625,71.03509864807131L321.793125,72.10263061523438L323.9971875,72.12262077331542L326.20125,68.18180319468178L328.40531250000004,67.9563506444295L330.609375,69.66402308146161L332.8134375,64.43935317993163L335.0175,61.645548820495605L337.2215625,53.934333356221536L339.42562499999997,51.398123995463045L341.6296875,49.42758337656658L343.83375,46.545141601562484L346.03781250000003,44.646028645833326L348.241875,40.56355419158934L350.4459375,39.61023457845051L352.65000000000003,39.02529474894204L354.8540625,40.042923227945955L357.05812499999996,29.80264116923013L359.2621875,26.73101196289064L361.46625,23.677191734313965L363.67031249999997,21.14309164683022L365.874375,20.2210995356242L368.0784375,20.549163436889664L370.2825,16.76529496510824L372.4865625,15.275572776794434L374.690625,17.18228391011558L376.89468750000003,19.41439838409423L379.09875,23.820214843750016L381.30281249999996,23.020129140218103L383.506875,25.19478988647461L385.7109375,22.54458389282228L387.915,22.23147665659587L390.1190625,23.651520919799797L392.323125,28.468981234232565L394.5271875,31.910068829854314L396.73125000000005,35.04123706817626L398.9353125,34.83855508168539L401.139375,33.153916867574075L403.3434375,36.32338759104409L405.5475,34.88261013031007L407.7515625,37.805703353881825L409.955625,38.00869693756102L412.1596875,38.0648323694865L414.36375000000004,37.81586621602377L416.5678125,36.91048463185627L418.771875,43.91116263071695L420.9759375,45.270517349243164L423.18,50.50686016082762L425.38406249999997,55.4339307785034L427.588125,58.53861325581869L429.7921875,57.580379994710306L431.99625,55.914677302042655L434.2003125,55.03971239725747L436.404375,53.9040604909261L438.60843750000004,52.71361541748047L440.8125,56.16896457672118L443.01656249999996,55.6485013961792L445.220625,51.28904101053872L447.4246875,51.90322303771973L449.62874999999997,49.05234845479328L451.8328125,50.29101918538412L454.036875,51.037030792236344L456.24093750000003,47.402824846903464L458.445,44.958392842610685L460.6490625,43.54491608937582L462.85312500000003,45.69987430572508L465.0571875,42.9596886316935L467.26124999999996,42.55039374033611L469.4653125,41.81828416188557L471.669375,41.44134744008381L473.8734375,40.034677886962875L476.0775,41.19739081064859L478.2815625,41.61020914713543L480.485625,40.687210337320955L482.68968750000005,39.22605921427408L484.89375,35.285169728597L487.0978125,34.1361910502116L489.301875,33.24857050577799L491.5059375,37.15782089233397L493.71,39.427015431722L495.9140625,40.86139316558837L498.118125,37.476129404703784L500.32218750000004,42.36928386688231L502.52625000000006,44.08426685333251L504.73031249999997,40.59454612731935L506.934375,39.16642430623374L509.13843749999995,42.039446258544906L511.3425,39.72878532409669L513.5465625,39.22474091847738L515.750625,39.9079537073771L517.9546875,39.29077555338541L520.15875,37.83381900787355L522.3628124999999,36.073222986857104L524.566875,39.92279052734375L526.7709375,39.61963043212892L528.975,42.56837050120037L531.1790625,40.27103633880614L533.3831250000001,41.16886768341066L535.5871875,41.778279876709L537.7912500000001,38.49380582173666L539.9953125,39.30460567474364L542.1993749999999,36.16840394337971L544.4034375,33.7636885960897L546.6075,37.21937332153322L548.8115625,37.252834065755216L551.015625,34.572379175821936L553.2196875000001,35.28605658213297L555.42375,36.175354957580566L557.6278125,43.76631787618003L559.831875,44.16755917867027L562.0359374999999,45.25568052927651L564.24,51.06646474202473L566.4440625,51.58608900705974L568.648125,54.620398457845056L570.8521875,55.400062561035156L573.05625,55.90003223419188L575.2603124999999,53.95799077351887L577.464375,59.43886547088624L579.6684375,59.04572569529216L581.8725000000001,56.98312009175618L584.0765625,57.736178588867176L586.280625,57.647421328226706L588.4846875000001,58.94615840911865L590.6887499999999,61.600894546508805L592.8928125,62.79361667633055L595.096875,61.06499532063804L597.3009375,58.920032183329276L599.505,58.59311879475911L601.7090625000001,54.3712884902954L603.913125,50.31163253784178L606.1171875,52.358610343933094L608.32125,53.33383763631184L610.5253124999999,51.59330368041992L612.729375,49.83189271291098L614.9334375,49.273774210611975L617.1375,50.95086218516031L619.3415625,54.22668342590333L621.5456250000001,56.2482540766398L623.7496875,57.22295405069986L625.9537499999999,62.222459030151356L628.1578125,60.36385370890299L630.3618749999999,59.59622205098469L632.5659375,59.72709287007649L634.77,63.54207312266033L636.9740625000001,63.26055704752605L639.178125,59.53876832326255L641.3821875,58.81401723225912L643.58625,58.646617635091154L645.7903125,57.15016015370686L647.994375,55.28328552246092L650.1984375,53.833208084106445L652.4025,51.61362940470377L654.6065625,52.50578009287517L656.8106250000001,53.90837491353352L659.0146874999999,53.812978235880514L661.21875,56.11637655893963L663.4228125,56.37210197448729L665.626875,62.10407606760662L667.8309375,65.77792676289874L670.035,71.66435718536377L672.2390625,71.46805095672607L674.443125,73.4517505645752L676.6471875,76.45847167968748L678.8512499999999,81.71861572265624L681.0553125,86.00880565643308L683.259375,84.45204213460289L685.4634375,83.92541891733805L687.6675,85.60327390034996L689.8715625,84.14670085906982L692.0756250000001,86.09176241556804L694.2796874999999,86.26822230021156L696.48375,87.74063886006672L698.6878125,86.84088999430338L700.891875,84.84650020599366L703.0959375,84.63943188985189L705.3000000000001,86.06671479543053L707.5040625,83.61317456563313L709.708125,79.78223094940188L711.9121875,80.4676009496053L714.1162499999999,78.17026678721112L716.3203125,75.84491284688312L718.524375,77.52811292012535L720.7284375,76.01995855967203L722.9325,78.31297829945885L725.1365625000001,77.82348308563235L727.3406249999999,79.75756683349607L729.5446875,74.30058924357098L731.74875,75.35661608378092L733.9528124999999,75.65761896769203L736.156875,70.59344558715821L738.3609375,68.64610697428384L740.565,69.3488545099894L742.7690625,68.90094553629558L744.973125,67.84304911295573L747.1771875,70.6356550216675L749.38125,70.92572803497313L751.5853125,69.11515661875404L753.7893750000001,68.88328037261965L755.9934375,68.17957407633463L758.1975,72.31396541595461L760.4015625000001,69.83214174906414L762.6056249999999,71.0461243947347L764.8096875,72.98512179056803L767.01375,73.50453033447263L769.2178125,74.40058797200521L771.421875,74.37124989827475L773.6259375000001,78.13730939229328L775.83,75.46035397847493L778.0340625,72.13175296783447L780.238125,69.94515565236412L782.4421874999999,69.10182984670001L784.64625,65.99014841715496L786.8503125,67.03179384867349L789.054375,63.571315320332864L791.2584375,62.62250188191734L793.4625000000001,62.67683963775636L795.6665624999999,59.39092744191487L797.870625,56.20618845621744L800.0746875,54.94827060699464L802.27875,54.7435033162435L804.4828125,54.40798505147297L806.686875,57.3544001261393L808.8909375000001,56.48892695109049L811.095,52.473565737406425L813.2990625,49.105583635965964L815.503125,49.785584576924634L817.7071875,49.81461105346681L819.91125,47.70131098429363L822.1153125,47.80715815226238L824.319375,50.33960437774658L826.5234375,47.87062810262045L828.7275000000001,48.54132906595867L830.9315624999999,48.098885027567526L833.135625,50.25923627217611L835.3396875,46.25986239115395L837.54375,41.89014326731365L839.7478125,39.4312339782715L841.951875,36.08204358418783L844.1559375,29.552572441101066L846.36,25.73241488138836L848.5640625,24.007868258158346L850.7681249999999,20.051902262369772L852.9721875,20.938492139180486L855.17625,14.08714110056559L857.3803125000001,14.74405988057453L859.584375,13.585110092163069L861.7884375000001,15.994715118408186L863.9925,14.775722948710104L866.1965624999999,14.64346192677817L868.400625,14.517504755655922L870.6046875,17.42449080149333L872.80875,21.24203573862712L875.0128125,22.371168073018396L877.2168750000001,20.54834849039713L879.4209375,19.976831309000655L881.625,17.831892140706376L883.8290625,19.92630462646485L886.0331249999999,15.44625612894692L888.2371875,12.093254661560076L890.44125,10.310223642985024L892.6453125,9.88954346974691L894.849375,7.224356842041007L897.0534375000001,3.2831797281900847L899.2574999999999,4.328636233011879L901.4615625,4.949194018046058L903.665625,5.955748812357573L905.8696874999999,8.613457107543928L908.07375,7.750404802958151L910.2778125,11.064672342936204L912.4818750000001,7.1903927485148L914.6859375,5.203960673014311L916.89,6.106130409240731L919.0940625,6.768394279479989L921.298125,13.177804629007989L923.5021875,13.856271553039559L925.7062500000001,16.01178105672199L927.9103125,13.123946253458657L930.114375,17.10709311167398L932.3184375,13.50773811340332L934.5224999999999,11.298561986287437L936.7265625,10.738981374104812L938.930625,6.715494664510111L941.1346875,3.2243118286132812L943.33875,0.22425409952797526L945.5428125000001,-0.42444330851240886" style="fill: none;" fill="none"></path></g></g></g></g></g></g><g transform="translate(41, 377)" clip-path="url(#clip_1)"><clipPath id="clip_1"><rect width="991" height="23"></rect></clipPath><g><g><line x1="0" y1="0" x2="0" y2="5" style="visibility: inherit;" fill="rgb(0, 0, 0)" stroke="rgb(204, 204, 204)" stroke-width="1px"></line><line x1="110.203125" y1="0" x2="110.203125" y2="5" style="visibility: inherit;" fill="rgb(0, 0, 0)" stroke="rgb(204, 204, 204)" stroke-width="1px"></line><line x1="220.40625" y1="0" x2="220.40625" y2="5" style="visibility: inherit;" fill="rgb(0, 0, 0)" stroke="rgb(204, 204, 204)" stroke-width="1px"></line><line x1="330.609375" y1="0" x2="330.609375" y2="5" style="visibility: inherit;" fill="rgb(0, 0, 0)" stroke="rgb(204, 204, 204)" stroke-width="1px"></line><line x1="440.8125" y1="0" x2="440.8125" y2="5" style="visibility: inherit;" fill="rgb(0, 0, 0)" stroke="rgb(204, 204, 204)" stroke-width="1px"></line><line x1="551.015625" y1="0" x2="551.015625" y2="5" style="visibility: inherit;" fill="rgb(0, 0, 0)" stroke="rgb(204, 204, 204)" stroke-width="1px"></line><line x1="661.21875" y1="0" x2="661.21875" y2="5" style="visibility: inherit;" fill="rgb(0, 0, 0)" stroke="rgb(204, 204, 204)" stroke-width="1px"></line><line x1="771.421875" y1="0" x2="771.421875" y2="5" style="visibility: inherit;" fill="rgb(0, 0, 0)" stroke="rgb(204, 204, 204)" stroke-width="1px"></line><line x1="881.625" y1="0" x2="881.625" y2="5" style="visibility: inherit;" fill="rgb(0, 0, 0)" stroke="rgb(204, 204, 204)" stroke-width="1px"></line><line x1="991.828125" y1="0" x2="991.828125" y2="5" style="visibility: inherit;" fill="rgb(0, 0, 0)" stroke="rgb(204, 204, 204)" stroke-width="1px"></line></g><g transform="translate(0, 8)"><text x="0" y="0" dx="0em" dy="0.95em" style="text-anchor: middle; visibility: hidden; font-family: Roboto, sans-serif; font-size: 12px; font-weight: 200;" fill="rgb(255, 255, 255)" stroke="none" stroke-width="1px">-50</text><text x="110.203125" y="0" dx="0em" dy="0.95em" style="text-anchor: middle; visibility: inherit; font-family: Roboto, sans-serif; font-size: 12px; font-weight: 200;" fill="rgb(255, 255, 255)" stroke="none" stroke-width="1px">0</text><text x="220.40625" y="0" dx="0em" dy="0.95em" style="text-anchor: middle; visibility: inherit; font-family: Roboto, sans-serif; font-size: 12px; font-weight: 200;" fill="rgb(255, 255, 255)" stroke="none" stroke-width="1px">50</text><text x="330.609375" y="0" dx="0em" dy="0.95em" style="text-anchor: middle; visibility: inherit; font-family: Roboto, sans-serif; font-size: 12px; font-weight: 200;" fill="rgb(255, 255, 255)" stroke="none" stroke-width="1px">100</text><text x="440.8125" y="0" dx="0em" dy="0.95em" style="text-anchor: middle; visibility: inherit; font-family: Roboto, sans-serif; font-size: 12px; font-weight: 200;" fill="rgb(255, 255, 255)" stroke="none" stroke-width="1px">150</text><text x="551.015625" y="0" dx="0em" dy="0.95em" style="text-anchor: middle; visibility: inherit; font-family: Roboto, sans-serif; font-size: 12px; font-weight: 200;" fill="rgb(255, 255, 255)" stroke="none" stroke-width="1px">200</text><text x="661.21875" y="0" dx="0em" dy="0.95em" style="text-anchor: middle; visibility: inherit; font-family: Roboto, sans-serif; font-size: 12px; font-weight: 200;" fill="rgb(255, 255, 255)" stroke="none" stroke-width="1px">250</text><text x="771.421875" y="0" dx="0em" dy="0.95em" style="text-anchor: middle; visibility: inherit; font-family: Roboto, sans-serif; font-size: 12px; font-weight: 200;" fill="rgb(255, 255, 255)" stroke="none" stroke-width="1px">300</text><text x="881.625" y="0" dx="0em" dy="0.95em" style="text-anchor: middle; visibility: inherit; font-family: Roboto, sans-serif; font-size: 12px; font-weight: 200;" fill="rgb(255, 255, 255)" stroke="none" stroke-width="1px">350</text><text x="991.828125" y="0" dx="0em" dy="0.95em" style="text-anchor: middle; visibility: hidden; font-family: Roboto, sans-serif; font-size: 12px; font-weight: 200;" fill="rgb(255, 255, 255)" stroke="none" stroke-width="1px">400</text></g><line x1="0" y1="0" x2="991.828125" y2="0" fill="rgb(0, 0, 0)" stroke="rgb(204, 204, 204)" stroke-width="1px"></line></g></g></g></g></svg>